<svg xmlns="http://www.w3.org/2000/svg" width="25.027" height="25.002" viewBox="0 0 25.027 25.002">
  <g id="pokedex" transform="translate(-7.708 -7.596)">
    <path id="Caminho_72" data-name="Caminho 72" d="M22.426,18.28a2.857,2.857,0,1,1-4.022-.387A2.857,2.857,0,0,1,22.426,18.28Z" fill="#fff" stroke="#323232" stroke-width="1"/>
    <path id="Caminho_73" data-name="Caminho 73" d="M27.854,29.357a12,12,0,0,0,2.623-15.492l-5.423,4.47a5.145,5.145,0,0,1-7.485,6.17l-5.423,4.47A12,12,0,0,0,27.854,29.357Zm-12.466-7.5L9.965,26.33A12,12,0,0,1,28.3,11.219l-5.423,4.47a5.145,5.145,0,0,0-7.485,6.17Zm7.038-3.58a2.857,2.857,0,1,1-4.022-.387A2.857,2.857,0,0,1,22.426,18.28Z" fill="#fff" stroke="#323232" stroke-width="1" fill-rule="evenodd"/>
  </g>
</svg>
